<mxfile host="app.diagrams.net" modified="2023-01-13T18:36:41.623Z" agent="5.0 (Windows NT 10.0; Win64; x64) AppleWebKit/537.36 (KHTML, like Gecko) Chrome/109.0.0.0 Safari/537.36" etag="FwoW3a463bTywFYCx_q8" version="20.7.4" type="github">
  <diagram id="C5RBs43oDa-KdzZeNtuy" name="Page-1">
    <mxGraphModel dx="1035" dy="522" grid="1" gridSize="10" guides="1" tooltips="1" connect="1" arrows="1" fold="1" page="1" pageScale="1" pageWidth="1169" pageHeight="1654" math="0" shadow="0">
      <root>
        <mxCell id="WIyWlLk6GJQsqaUBKTNV-0" />
        <mxCell id="WIyWlLk6GJQsqaUBKTNV-1" parent="WIyWlLk6GJQsqaUBKTNV-0" />
        <mxCell id="xOoFjg1MgwEFbZOizuD8-0" value="1. Sistema de Alquiler&#xa;Para evitar convertirse en un nuevo Blockbuster, un videoclub de barrio ha decidido&#xa;diversificarse e incorporar a su cartera de negocios el alquiler de autos. Para modernizarse,&#xa;abandonará los registros en papel e implementará un sistema unificado de alquiler. El sistema&#xa;debe permitir alquilar un determinado ítem a un cliente hasta una fecha determinada y llevar&#xa;control de los ítems alquilados a cada cliente. Las películas poseen información filmográfica&#xa;y la cantidad de copias que se dispone de la misma. De los vehículos, se registra marca, kms&#xa;y patente. Los vehículos pueden ser eléctricos, nafteros o diesel. Una película puede ser&#xa;alquilada si hay copias aún disponibles, mientras que los vehículos sólo pueden ser alquilados&#xa;a un cliente por vez.&#xa;Se debe proveer además la funcionalidad necesaria para permitir conocer quiénes son los&#xa;clientes que poseen alquileres vencidos." style="text;whiteSpace=wrap;html=1;" vertex="1" parent="WIyWlLk6GJQsqaUBKTNV-1">
          <mxGeometry x="40" y="40" width="560" height="200" as="geometry" />
        </mxCell>
        <mxCell id="xOoFjg1MgwEFbZOizuD8-6" value="&lt;p style=&quot;margin:0px;margin-top:4px;text-align:center;&quot;&gt;&lt;i&gt;&amp;lt;&amp;lt;Interface&amp;gt;&amp;gt;&lt;/i&gt;&lt;br&gt;&lt;b&gt;Item&lt;/b&gt;&lt;/p&gt;&lt;hr size=&quot;1&quot;&gt;&lt;p style=&quot;margin:0px;margin-left:4px;&quot;&gt;- cabecera: String&lt;/p&gt;&lt;p style=&quot;margin:0px;margin-left:4px;&quot;&gt;- informacion: String&lt;/p&gt;&lt;p style=&quot;margin:0px;margin-left:4px;&quot;&gt;- datosNumricos: int&lt;/p&gt;&lt;hr size=&quot;1&quot;&gt;&lt;p style=&quot;margin:0px;margin-left:4px;&quot;&gt;+ crearItem (cabecera:String,&amp;nbsp;&lt;/p&gt;&lt;p style=&quot;margin:0px;margin-left:4px;&quot;&gt;&lt;span style=&quot;white-space: pre;&quot;&gt;	&lt;/span&gt;&lt;span style=&quot;white-space: pre;&quot;&gt;	&lt;/span&gt;informacion: String,&amp;nbsp;&lt;/p&gt;&lt;p style=&quot;margin:0px;margin-left:4px;&quot;&gt;&lt;span style=&quot;white-space: pre;&quot;&gt;	&lt;/span&gt;&lt;span style=&quot;white-space: pre;&quot;&gt;	&lt;/span&gt;datosNumericos: int)&lt;/p&gt;" style="verticalAlign=top;align=left;overflow=fill;fontSize=12;fontFamily=Helvetica;html=1;" vertex="1" parent="WIyWlLk6GJQsqaUBKTNV-1">
          <mxGeometry x="130" y="290" width="190" height="160" as="geometry" />
        </mxCell>
        <mxCell id="xOoFjg1MgwEFbZOizuD8-7" value="&lt;p style=&quot;margin:0px;margin-top:4px;text-align:center;&quot;&gt;&lt;b&gt;Vehiculo&lt;/b&gt;&lt;/p&gt;&lt;hr size=&quot;1&quot;&gt;&lt;p style=&quot;margin:0px;margin-left:4px;&quot;&gt;- marca: String&lt;/p&gt;&lt;p style=&quot;margin:0px;margin-left:4px;&quot;&gt;- patente: String&lt;/p&gt;&lt;p style=&quot;margin:0px;margin-left:4px;&quot;&gt;- kms: double&lt;/p&gt;&lt;hr size=&quot;1&quot;&gt;&lt;p style=&quot;margin:0px;margin-left:4px;&quot;&gt;+ creaItem()&lt;/p&gt;" style="verticalAlign=top;align=left;overflow=fill;fontSize=12;fontFamily=Helvetica;html=1;" vertex="1" parent="WIyWlLk6GJQsqaUBKTNV-1">
          <mxGeometry x="600" y="490" width="160" height="150" as="geometry" />
        </mxCell>
        <mxCell id="xOoFjg1MgwEFbZOizuD8-8" value="&lt;p style=&quot;margin:0px;margin-top:4px;text-align:center;&quot;&gt;&lt;b&gt;Pelicula&lt;/b&gt;&lt;/p&gt;&lt;hr size=&quot;1&quot;&gt;&lt;p style=&quot;margin:0px;margin-left:4px;&quot;&gt;- nombrePelicula: String&lt;/p&gt;&lt;p style=&quot;margin:0px;margin-left:4px;&quot;&gt;- informacion: String&lt;/p&gt;&lt;p style=&quot;margin:0px;margin-left:4px;&quot;&gt;- copias: double&lt;/p&gt;&lt;hr size=&quot;1&quot;&gt;&lt;p style=&quot;margin:0px;margin-left:4px;&quot;&gt;+ creaItem()&lt;/p&gt;" style="verticalAlign=top;align=left;overflow=fill;fontSize=12;fontFamily=Helvetica;html=1;" vertex="1" parent="WIyWlLk6GJQsqaUBKTNV-1">
          <mxGeometry x="600" y="670" width="160" height="150" as="geometry" />
        </mxCell>
        <mxCell id="xOoFjg1MgwEFbZOizuD8-11" value="&lt;p style=&quot;margin:0px;margin-top:4px;text-align:center;&quot;&gt;&lt;b&gt;ItemBasico&lt;/b&gt;&lt;/p&gt;&lt;hr size=&quot;1&quot;&gt;&lt;p style=&quot;border-color: var(--border-color); margin: 0px 0px 0px 4px;&quot;&gt;- cabecera: String&lt;/p&gt;&lt;p style=&quot;border-color: var(--border-color); margin: 0px 0px 0px 4px;&quot;&gt;- informacion: String&lt;/p&gt;&lt;p style=&quot;border-color: var(--border-color); margin: 0px 0px 0px 4px;&quot;&gt;- datosNumricos: int&lt;/p&gt;&lt;hr style=&quot;border-color: var(--border-color);&quot; size=&quot;1&quot;&gt;&lt;p style=&quot;border-color: var(--border-color); margin: 0px 0px 0px 4px;&quot;&gt;+ crearItem (cabecera:String,&amp;nbsp;&lt;/p&gt;&lt;p style=&quot;border-color: var(--border-color); margin: 0px 0px 0px 4px;&quot;&gt;&lt;span style=&quot;border-color: var(--border-color);&quot;&gt;	&lt;/span&gt;&lt;span style=&quot;border-color: var(--border-color);&quot;&gt;	&lt;/span&gt;informacion: String,&amp;nbsp;&lt;/p&gt;&lt;p style=&quot;border-color: var(--border-color); margin: 0px 0px 0px 4px;&quot;&gt;&lt;span style=&quot;border-color: var(--border-color);&quot;&gt;	&lt;/span&gt;&lt;span style=&quot;border-color: var(--border-color);&quot;&gt;	&lt;/span&gt;datosNumericos: int)&lt;/p&gt;" style="verticalAlign=top;align=left;overflow=fill;fontSize=12;fontFamily=Helvetica;html=1;" vertex="1" parent="WIyWlLk6GJQsqaUBKTNV-1">
          <mxGeometry x="40" y="505" width="200" height="160" as="geometry" />
        </mxCell>
        <mxCell id="xOoFjg1MgwEFbZOizuD8-13" value="" style="endArrow=block;dashed=1;endFill=0;endSize=12;html=1;rounded=0;entryX=0;entryY=0.5;entryDx=0;entryDy=0;exitX=0.25;exitY=0;exitDx=0;exitDy=0;" edge="1" parent="WIyWlLk6GJQsqaUBKTNV-1" source="xOoFjg1MgwEFbZOizuD8-11" target="xOoFjg1MgwEFbZOizuD8-6">
          <mxGeometry width="160" relative="1" as="geometry">
            <mxPoint x="80" y="500" as="sourcePoint" />
            <mxPoint x="240" y="720" as="targetPoint" />
            <Array as="points">
              <mxPoint x="90" y="370" />
            </Array>
          </mxGeometry>
        </mxCell>
        <mxCell id="xOoFjg1MgwEFbZOizuD8-14" value="ICOMPONENTE" style="text;html=1;strokeColor=none;fillColor=none;align=center;verticalAlign=middle;whiteSpace=wrap;rounded=0;" vertex="1" parent="WIyWlLk6GJQsqaUBKTNV-1">
          <mxGeometry x="180" y="250" width="130" height="30" as="geometry" />
        </mxCell>
        <mxCell id="xOoFjg1MgwEFbZOizuD8-15" value="COMPONENTE CONCRETO" style="text;html=1;strokeColor=none;fillColor=none;align=center;verticalAlign=middle;whiteSpace=wrap;rounded=0;" vertex="1" parent="WIyWlLk6GJQsqaUBKTNV-1">
          <mxGeometry x="40" y="680" width="130" height="50" as="geometry" />
        </mxCell>
        <mxCell id="xOoFjg1MgwEFbZOizuD8-16" value="DECORADOR &lt;br&gt;CONCRETO" style="text;html=1;strokeColor=none;fillColor=none;align=center;verticalAlign=middle;whiteSpace=wrap;rounded=0;" vertex="1" parent="WIyWlLk6GJQsqaUBKTNV-1">
          <mxGeometry x="630" y="430" width="130" height="50" as="geometry" />
        </mxCell>
        <mxCell id="xOoFjg1MgwEFbZOizuD8-20" style="edgeStyle=orthogonalEdgeStyle;rounded=0;orthogonalLoop=1;jettySize=auto;html=1;exitX=1;exitY=0.5;exitDx=0;exitDy=0;entryX=0;entryY=0.627;entryDx=0;entryDy=0;entryPerimeter=0;" edge="1" parent="WIyWlLk6GJQsqaUBKTNV-1" source="xOoFjg1MgwEFbZOizuD8-17" target="xOoFjg1MgwEFbZOizuD8-7">
          <mxGeometry relative="1" as="geometry" />
        </mxCell>
        <mxCell id="xOoFjg1MgwEFbZOizuD8-21" style="edgeStyle=orthogonalEdgeStyle;rounded=0;orthogonalLoop=1;jettySize=auto;html=1;exitX=1;exitY=0.75;exitDx=0;exitDy=0;entryX=-0.006;entryY=0.333;entryDx=0;entryDy=0;entryPerimeter=0;" edge="1" parent="WIyWlLk6GJQsqaUBKTNV-1" source="xOoFjg1MgwEFbZOizuD8-17" target="xOoFjg1MgwEFbZOizuD8-8">
          <mxGeometry relative="1" as="geometry" />
        </mxCell>
        <mxCell id="xOoFjg1MgwEFbZOizuD8-17" value="&lt;p style=&quot;margin:0px;margin-top:4px;text-align:center;&quot;&gt;&lt;i&gt;&amp;lt;&amp;lt;abstract&amp;gt;&amp;gt;&lt;/i&gt;&lt;br&gt;&lt;b&gt;ItemDecorador&lt;/b&gt;&lt;/p&gt;&lt;hr size=&quot;1&quot;&gt;&lt;p style=&quot;margin:0px;margin-left:4px;&quot;&gt;- cabecera: String&lt;/p&gt;&lt;p style=&quot;margin:0px;margin-left:4px;&quot;&gt;- informacion: String&lt;/p&gt;&lt;p style=&quot;margin:0px;margin-left:4px;&quot;&gt;- datosNumricos: int&lt;/p&gt;&lt;hr size=&quot;1&quot;&gt;&lt;p style=&quot;margin:0px;margin-left:4px;&quot;&gt;+ crearItem (cabecera:String,&amp;nbsp;&lt;/p&gt;&lt;p style=&quot;margin:0px;margin-left:4px;&quot;&gt;&lt;span style=&quot;white-space: pre;&quot;&gt;	&lt;/span&gt;&lt;span style=&quot;white-space: pre;&quot;&gt;	&lt;/span&gt;informacion: String,&amp;nbsp;&lt;/p&gt;&lt;p style=&quot;margin:0px;margin-left:4px;&quot;&gt;&lt;span style=&quot;white-space: pre;&quot;&gt;	&lt;/span&gt;&lt;span style=&quot;white-space: pre;&quot;&gt;	&lt;/span&gt;datosNumericos: int)&lt;/p&gt;" style="verticalAlign=top;align=left;overflow=fill;fontSize=12;fontFamily=Helvetica;html=1;" vertex="1" parent="WIyWlLk6GJQsqaUBKTNV-1">
          <mxGeometry x="300" y="505" width="190" height="160" as="geometry" />
        </mxCell>
        <mxCell id="xOoFjg1MgwEFbZOizuD8-18" value="DECORADOR" style="text;html=1;strokeColor=none;fillColor=none;align=center;verticalAlign=middle;whiteSpace=wrap;rounded=0;" vertex="1" parent="WIyWlLk6GJQsqaUBKTNV-1">
          <mxGeometry x="300" y="680" width="130" height="50" as="geometry" />
        </mxCell>
        <mxCell id="xOoFjg1MgwEFbZOizuD8-19" value="" style="endArrow=diamondThin;endFill=0;endSize=24;html=1;rounded=0;exitX=1;exitY=0.5;exitDx=0;exitDy=0;" edge="1" parent="WIyWlLk6GJQsqaUBKTNV-1" source="xOoFjg1MgwEFbZOizuD8-6">
          <mxGeometry width="160" relative="1" as="geometry">
            <mxPoint x="420" y="520" as="sourcePoint" />
            <mxPoint x="400" y="500" as="targetPoint" />
            <Array as="points">
              <mxPoint x="400" y="370" />
            </Array>
          </mxGeometry>
        </mxCell>
      </root>
    </mxGraphModel>
  </diagram>
</mxfile>
